# xmcd
#
# Track frame offsets:
#	150
#	22272
#	35984
#	53044
#	69137
#	87546
#	104652
#	117604
#	135154
#	152266
#	168360
#	189627
#
# Disc length: 2723 seconds
#
# Revision: 1
# Processed by: cddbd v1.5.1PL0 Copyright (c) Steve Scherf et al.
# Submitted via: audiograbber 1.83.01
#
DISCID=a30aa10c
DTITLE=Maria - Bert ein dag
DYEAR=1900
DGENRE=Gospel
TTITLE0=Eg stundi eftir
TTITLE1=Á sæla havn
TTITLE2=Vit eiga løtuna
TTITLE3=Tár er eitt mál
TTITLE4=Vit tala saman
TTITLE5=Jesus eg takki tær
TTITLE6=Tú kemur Jesus
TTITLE7=Rósan og summarfuglurin
TTITLE8=Ei eg kenni morgindagin
TTITLE9=Dalsins hvíta lilja
TTITLE10=Bert ein dag
TTITLE11=Eg komi skjótt
EXTD=
EXTT0=
EXTT1=
EXTT2=
EXTT3=
EXTT4=
EXTT5=
EXTT6=
EXTT7=
EXTT8=
EXTT9=
EXTT10=
EXTT11=
PLAYORDER=
